<svg width="386" height="116" viewBox="0 0 386 116" fill="none" xmlns="http://www.w3.org/2000/svg">
<rect y="12" width="92" height="92" rx="8" fill="#3075FF"/>
<path d="M110.455 93V23.1818H152.318V30.6818H118.909V54.2727H149.182V61.7727H118.909V93H110.455ZM165.707 93V40.6364H173.753V93H165.707ZM169.798 31.9091C168.23 31.9091 166.878 31.375 165.741 30.3068C164.628 29.2386 164.071 27.9545 164.071 26.4545C164.071 24.9545 164.628 23.6705 165.741 22.6023C166.878 21.5341 168.23 21 169.798 21C171.366 21 172.707 21.5341 173.821 22.6023C174.957 23.6705 175.526 24.9545 175.526 26.4545C175.526 27.9545 174.957 29.2386 173.821 30.3068C172.707 31.375 171.366 31.9091 169.798 31.9091ZM211.261 40.6364V47.4545H184.125V40.6364H211.261ZM192.034 28.0909H200.08V78C200.08 80.2727 200.409 81.9773 201.068 83.1136C201.75 84.2273 202.614 84.9773 203.659 85.3636C204.727 85.7273 205.852 85.9091 207.034 85.9091C207.92 85.9091 208.648 85.8636 209.216 85.7727C209.784 85.6591 210.239 85.5682 210.58 85.5L212.216 92.7273C211.67 92.9318 210.909 93.1364 209.932 93.3409C208.955 93.5682 207.716 93.6818 206.216 93.6818C203.943 93.6818 201.716 93.1932 199.534 92.2159C197.375 91.2386 195.58 89.75 194.148 87.75C192.739 85.75 192.034 83.2273 192.034 80.1818V28.0909ZM256.364 71.5909V40.6364H264.409V93H256.364V84.1364H255.818C254.591 86.7955 252.682 89.0568 250.091 90.9205C247.5 92.7614 244.227 93.6818 240.273 93.6818C237 93.6818 234.091 92.9659 231.545 91.5341C229 90.0795 227 87.8977 225.545 84.9886C224.091 82.0568 223.364 78.3636 223.364 73.9091V40.6364H231.409V73.3636C231.409 77.1818 232.477 80.2273 234.614 82.5C236.773 84.7727 239.523 85.9091 242.864 85.9091C244.864 85.9091 246.898 85.3977 248.966 84.375C251.057 83.3523 252.807 81.7841 254.216 79.6705C255.648 77.5568 256.364 74.8636 256.364 71.5909ZM287.19 61.5V93H279.145V40.6364H286.918V48.8182H287.599C288.827 46.1591 290.69 44.0227 293.19 42.4091C295.69 40.7727 298.918 39.9545 302.872 39.9545C306.418 39.9545 309.52 40.6818 312.179 42.1364C314.838 43.5682 316.906 45.75 318.384 48.6818C319.861 51.5909 320.599 55.2727 320.599 59.7273V93H312.554V60.2727C312.554 56.1591 311.486 52.9545 309.349 50.6591C307.213 48.3409 304.281 47.1818 300.554 47.1818C297.986 47.1818 295.69 47.7386 293.668 48.8523C291.668 49.9659 290.088 51.5909 288.929 53.7273C287.77 55.8636 287.19 58.4545 287.19 61.5ZM356.574 94.0909C351.847 94.0909 347.699 92.9659 344.131 90.7159C340.585 88.4659 337.812 85.3182 335.812 81.2727C333.835 77.2273 332.847 72.5 332.847 67.0909C332.847 61.6364 333.835 56.875 335.812 52.8068C337.812 48.7386 340.585 45.5795 344.131 43.3295C347.699 41.0795 351.847 39.9545 356.574 39.9545C361.301 39.9545 365.438 41.0795 368.983 43.3295C372.551 45.5795 375.324 48.7386 377.301 52.8068C379.301 56.875 380.301 61.6364 380.301 67.0909C380.301 72.5 379.301 77.2273 377.301 81.2727C375.324 85.3182 372.551 88.4659 368.983 90.7159C365.438 92.9659 361.301 94.0909 356.574 94.0909ZM356.574 86.8636C360.165 86.8636 363.119 85.9432 365.438 84.1023C367.756 82.2614 369.472 79.8409 370.585 76.8409C371.699 73.8409 372.256 70.5909 372.256 67.0909C372.256 63.5909 371.699 60.3295 370.585 57.3068C369.472 54.2841 367.756 51.8409 365.438 49.9773C363.119 48.1136 360.165 47.1818 356.574 47.1818C352.983 47.1818 350.028 48.1136 347.71 49.9773C345.392 51.8409 343.676 54.2841 342.562 57.3068C341.449 60.3295 340.892 63.5909 340.892 67.0909C340.892 70.5909 341.449 73.8409 342.562 76.8409C343.676 79.8409 345.392 82.2614 347.71 84.1023C350.028 85.9432 352.983 86.8636 356.574 86.8636Z" fill="black"/>
<path d="M63 36.75C65.3473 36.75 67.25 38.6528 67.25 41V75C67.25 77.3473 65.3473 79.25 63 79.25C60.6527 79.25 58.75 77.3473 58.75 75V62.25H33.25V75C33.25 77.3473 31.3472 79.25 29 79.25C26.6528 79.25 24.75 77.3473 24.75 75V41C24.75 38.6528 26.6528 36.75 29 36.75C31.3472 36.75 33.25 38.6528 33.25 41V53.75H58.75V41C58.75 38.6528 60.6527 36.75 63 36.75ZM16.25 45.25C18.5972 45.25 20.5 47.1528 20.5 49.5V66.5C20.5 68.8473 18.5972 70.75 16.25 70.75C13.9028 70.75 12 68.8473 12 66.5V49.5C12 47.1528 13.9028 45.25 16.25 45.25ZM75.75 45.25C78.0973 45.25 80 47.1528 80 49.5V66.5C80 68.8473 78.0973 70.75 75.75 70.75C73.4027 70.75 71.5 68.8473 71.5 66.5V49.5C71.5 47.1528 73.4027 45.25 75.75 45.25Z" fill="white"/>
</svg>
