<svg width="92" height="92" viewBox="0 0 92 92" fill="none" xmlns="http://www.w3.org/2000/svg">
<rect width="92" height="92" rx="8" fill="#3075FF"/>
<path d="M63 24.75C65.3473 24.75 67.25 26.6528 67.25 29V63C67.25 65.3473 65.3473 67.25 63 67.25C60.6527 67.25 58.75 65.3473 58.75 63V50.25H33.25V63C33.25 65.3473 31.3472 67.25 29 67.25C26.6528 67.25 24.75 65.3473 24.75 63V29C24.75 26.6528 26.6528 24.75 29 24.75C31.3472 24.75 33.25 26.6528 33.25 29V41.75H58.75V29C58.75 26.6528 60.6527 24.75 63 24.75ZM16.25 33.25C18.5972 33.25 20.5 35.1528 20.5 37.5V54.5C20.5 56.8473 18.5972 58.75 16.25 58.75C13.9028 58.75 12 56.8473 12 54.5V37.5C12 35.1528 13.9028 33.25 16.25 33.25ZM75.75 33.25C78.0973 33.25 80 35.1528 80 37.5V54.5C80 56.8473 78.0973 58.75 75.75 58.75C73.4027 58.75 71.5 56.8473 71.5 54.5V37.5C71.5 35.1528 73.4027 33.25 75.75 33.25Z" fill="white"/>
</svg>
